<?xml version="1.0" encoding="UTF-8"?>
<svg width="50px" height="50px" viewBox="0 0 50 50" version="1.1" xmlns="http://www.w3.org/2000/svg" xmlns:xlink="http://www.w3.org/1999/xlink">
    <!-- Generator: Sketch 45.1 (43504) - http://www.bohemiancoding.com/sketch -->
    <title>space-nomads-symbol</title>
    <desc>Created with Sketch.</desc>
    <defs></defs>
    <g id="Page-1" stroke="none" stroke-width="1" fill="none" fill-rule="evenodd">
        <g id="space-nomads-symbol" fill-rule="nonzero">
            <g id="Asteroid" transform="translate(27.500000, 25.000000) rotate(-30.000000) translate(-27.500000, -25.000000) translate(2.000000, 8.000000)">
                <path d="M32.1313305,7.55702023 C32.1313305,6.72229484 31.4462978,6.04561621 30.6012672,6.04561621 L28.6121848,6.04561621 L24.7870264,6.04561621 C23.9419958,6.04561621 23.2569631,5.36893755 23.2569631,4.53421215 C23.2569631,3.69948675 23.9419958,3.0228081 24.7870264,3.0228081 L31.2132925,3.0228081 L35.8034828,3.0228081 C36.6485134,3.0228081 37.3335458,2.34612946 37.3335458,1.51140405 C37.3335458,0.676678642 36.6485134,0 35.8034828,0 L16.830697,0 C7.53535968,0 0,7.44346505 0,16.6254446 C0,25.807424 7.53535968,33.2508891 16.830697,33.2508891 L36.7215205,33.2508891 C37.5665514,33.2508891 38.2515839,32.5742105 38.2515839,31.739485 C38.2515839,30.9047596 37.5665514,30.228081 36.7215205,30.228081 L25.688519,30.228081 C24.8434883,30.228081 24.1584556,29.5514023 24.1584556,28.7166769 C24.1584556,27.8819515 24.8434883,27.2052729 25.688519,27.2052729 L38.5575966,27.2052729 C39.4026272,27.2052729 40.08766,26.5285943 40.08766,25.6938689 C40.08766,24.8591434 39.4026272,24.1824648 38.5575966,24.1824648 L33.8144002,24.1824648 L28.4591785,24.1824648 C27.6141478,24.1824648 26.9291151,23.5057862 26.9291151,22.6710607 C26.9291151,21.8363353 27.6141478,21.1596567 28.4591785,21.1596567 L31.3662989,21.1596567 L33.6613939,21.1596567 C34.5064245,21.1596567 35.1914573,20.482978 35.1914573,19.6482527 C35.1914573,18.8135273 34.5064245,18.1368486 33.6613939,18.1368486 L29.8362355,18.1368486 L23.5629757,18.1368486 C22.7179451,18.1368486 22.0329124,17.46017 22.0329124,16.6254446 C22.0329124,15.7907191 22.7179451,15.1140405 23.5629757,15.1140405 L30.7542735,15.1140405 L35.4974701,15.1140405 C36.3425007,15.1140405 37.0275331,14.4373618 37.0275331,13.6026364 C37.0275331,12.767911 36.3425007,12.0912324 35.4974701,12.0912324 L28.1531658,12.0912324 C27.3081351,12.0912324 26.6231025,11.4145538 26.6231025,10.5798284 C26.6231025,9.74510296 27.3081351,9.0684243 28.1531658,9.0684243 L30.6012672,9.0684243 C31.4462978,9.0684243 32.1313305,8.39174567 32.1313305,7.55702023 Z M42.5357615,6.04561621 C43.3807922,6.04561621 44.0658246,6.72229484 44.0658246,7.55702023 C44.0658246,8.39174567 43.3807922,9.0684243 42.5357615,9.0684243 L36.7215205,9.0684243 C35.8764898,9.0684243 35.1914573,8.39174567 35.1914573,7.55702023 C35.1914573,6.72229484 35.8764898,6.04561621 36.7215205,6.04561621 L42.5357615,6.04561621 Z M48.6560149,9.0684243 C49.5010456,9.0684243 50.186078,8.39174567 50.186078,7.55702023 C50.186078,6.72229484 49.5010456,6.04561621 48.6560149,6.04561621 C47.8109843,6.04561621 47.1259515,6.72229484 47.1259515,7.55702023 C47.1259515,8.39174567 47.8109843,9.0684243 48.6560149,9.0684243 Z M40.08766,15.1140405 C40.9326906,15.1140405 41.6177235,14.4373618 41.6177235,13.6026364 C41.6177235,12.767911 40.9326906,12.0912324 40.08766,12.0912324 C39.2426294,12.0912324 38.5575966,12.767911 38.5575966,13.6026364 C38.5575966,14.4373618 39.2426294,15.1140405 40.08766,15.1140405 Z" id="Oval-3" fill="#4A4A4A"></path>
                <path d="M20.502849,28.7166769 C20.502849,29.5514023 19.8178163,30.228081 18.9727856,30.228081 L16.830697,30.228081 C9.22542101,30.228081 3.06012672,24.1379732 3.06012672,16.6254446 C3.06012672,9.11291588 9.22542101,3.0228081 16.830697,3.0228081 C17.6757276,3.0228081 18.3607603,3.69948675 18.3607603,4.53421215 C18.3607603,5.36893755 17.6757276,6.04561621 16.830697,6.04561621 L13.4645576,6.04561621 C12.6195269,6.04561621 11.9344942,6.72229484 11.9344942,7.55702023 C11.9344942,8.39174567 12.6195269,9.0684243 13.4645576,9.0684243 L17.5957286,9.0684243 L19.584811,9.0684243 C20.4298417,9.0684243 21.1148744,9.74510296 21.1148744,10.5798284 C21.1148744,11.4145538 20.4298417,12.0912324 19.584811,12.0912324 L18.207754,12.0912324 L14.9946209,12.0912324 C14.1495903,12.0912324 13.4645576,12.767911 13.4645576,13.6026364 C13.4645576,14.4373618 14.1495903,15.1140405 14.9946209,15.1140405 L15.6066487,15.1140405 C16.4516769,15.1140405 17.1367096,15.7907191 17.1367096,16.6254446 C17.1367096,17.46017 16.4516769,18.1368486 15.6066462,18.1368486 L13.1585449,18.1368486 C12.3135142,18.1368486 11.6284815,18.8135273 11.6284815,19.6482527 C11.6284815,20.482978 12.3135142,21.1596567 13.1585449,21.1596567 L17.9017413,21.1596567 L20.502849,21.1596567 C21.3478797,21.1596567 22.0329124,21.8363353 22.0329124,22.6710607 C22.0329124,23.5057862 21.3478797,24.1824648 20.502849,24.1824648 L17.748735,24.1824648 C16.9037043,24.1824648 16.2186716,24.8591434 16.2186716,25.6938689 C16.2186716,26.5285943 16.9037043,27.2052729 17.748735,27.2052729 L18.9727856,27.2052729 C19.8178163,27.2052729 20.502849,27.8819515 20.502849,28.7166769 Z" id="Oval-3" fill="#EAEAEA"></path>
            </g>
        </g>
    </g>
</svg>