<?xml version="1.0" encoding="UTF-8"?>
<svg width="40px" height="40px" viewBox="0 0 40 40" version="1.1" xmlns="http://www.w3.org/2000/svg" xmlns:xlink="http://www.w3.org/1999/xlink" style="background: #000000;">
 	<title>Mozilla</title>
	<defs></defs>
 	<g id="Page-1" stroke="none" stroke-width="1" fill="none" fill-rule="evenodd">
 		<g id="Mozilla" fill="#FFFFFF">
 			<path d="M34.9950755,18.1351328 C34.9649482,17.5300762 34.8946512,16.9233458 34.8528077,16.3224735 C34.8302122,16.0212005 34.7147242,15.7349912 34.5222443,15.5023415 C34.2946158,15.2245008 33.998364,15.0110991 33.6636162,14.8830581 C32.9874256,14.620281 32.3062139,14.3273767 31.625839,14.0671103 C30.6617654,13.7365469 29.7261453,13.325644 28.8290213,12.8352385 C28.2264752,12.4879376 27.8247779,11.8753492 27.7444384,11.1849319 C27.6557303,10.4041327 27.1971258,9.71036787 26.5142403,9.32038669 C25.7560366,8.91283126 24.8714655,8.80822258 24.0387804,9.02748238 C23.4245182,9.17477141 22.7834762,9.16556584 22.1725615,8.99986569 L21.2419627,8.71533007 L20.9892281,8.64001181 L20.258641,8.42242575 C18.944756,8.03077084 18.3940959,7.82573782 16.2642631,8.18977604 C14.0197791,8.69859268 11.9652646,9.8300402 10.3308585,11.4510564 L5,17.108294 L9.78689336,17.108294 L6.85450274,20.2130797 L11.8974782,20.2130797 L8.96592441,23.3178654 L13.0197201,23.3178654 L11.7242462,26.7155555 C16.6868821,31.7953532 21.9758972,32.8205182 21.9758972,32.8205182 C21.9758972,31.4204356 22.2939076,25.9247138 22.6671514,25.0041574 C22.8069086,24.5422055 23.0228209,24.1087071 23.3048459,23.7153784 C23.9969369,22.8667928 25.0472081,22.3864297 26.144344,22.4207414 C27.2347849,22.4207414 28.317694,22.6199163 29.337001,23.0082237 C29.9562844,23.2676533 30.6567442,23.2291573 31.2425528,22.9061257 C31.6668456,22.6550648 32.0852804,22.3889403 32.4961833,22.1194684 C32.6275718,22.0148597 32.7932719,21.9621369 32.9614827,21.9688318 C33.4133922,22.019044 33.8435431,21.7704938 34.0243069,21.3545697 C34.158206,21.0784027 34.3172112,20.8189732 34.4628265,20.5428063 C34.8578289,19.8030137 35.0402665,18.9694917 34.9925649,18.1326222 L34.9950755,18.1351328 Z" id="Dino"></path>
 	</g>
 	</g>
 </svg>
